<?xml version="1.0" encoding="utf-8"?>
<!-- Generator: Adobe Illustrator 26.5.1, SVG Export Plug-In . SVG Version: 6.00 Build 0)  -->
<svg version="1.1" id="Layer_1" xmlns="http://www.w3.org/2000/svg" xmlns:xlink="http://www.w3.org/1999/xlink" x="0px" y="0px"
	 viewBox="0 0 506.89 261.54" style="enable-background:new 0 0 506.89 261.54;" xml:space="preserve">
<style type="text/css">
	.st0{fill:#EC008C;}
	.st1{fill-rule:evenodd;clip-rule:evenodd;fill:#EC008C;}
	.st2{fill:#FFFFFF;}
</style>
<g>
	<g>
		<path class="st0" d="M488.68,249.7l-14.61-0.78l-3.25-0.31c0.83-0.2,1.41-0.46,1.73-0.8c0.32-0.27,0.49-0.68,0.49-1.25v-1.53
			l6.79,0.93l-1.31-0.55l-2.49-0.31l-0.35-0.08l-2.63-0.62l0.07-19.74l-1.88,3.03l-0.65,8.7l-0.11-7.49l-1.46,2.47l-1.52,0.15
			l-0.56,0.72l-9.54,13.87l-2.19-7.09l1.7,8.49l-3.12,1.26l-7.31-9.92l-0.86,8.76l-0.17-10.12l-3.65-4.93l8.8-1.95l3.31,4.06
			l0.21,0.51l1.24,1.19l-1.27,7.52l1.62-7.23l9.26-13.48l5.19,1.4l-2.77-1.03l1.45-0.04l-1.87-0.09l-1.73-0.63l0.77-2.21l2.71-2.87
			c0.56-0.88,0.84-1.5,0.84-1.85s-0.23-0.55-0.69-0.59s-0.97-0.08-1.52-0.11l-1.59-0.95l6.93-0.88l1.46-0.15l0.69,1.12l-0.57,4.47
			l0.91-4.28l15.59-2.5l-7.14,2.37c-0.32,0.09-0.44,0.24-0.35,0.44c0.05,0.1,0.14,0.18,0.28,0.25c-0.14,0.54-0.28,1.02-0.42,1.45
			c-0.09,0.39-0.19,0.76-0.28,1.1s-0.14,0.58-0.14,0.72l0.68,4.39l-0.83,0.37l1.16,5.84l-0.36,5.04l-2.5,0.74l1.95-1.92l-2.85,2.19
			l-4.09,1.17l7.48-1.39l-0.04,11.14c0,0.56,0.16,0.96,0.48,1.18c0.23,0.2,0.78,0.39,1.66,0.58l3.25,2.06L488.68,249.7z
			 M448.86,228.93l1.31,1.55l-3.67,0.66l2.36-2.27v0.05V228.93z M443.76,220.61l5.03,8.17l-2.78,2.45l-4.92,0.85l-3.72-5.03
			l-0.05,14.04l-3.05,0.99c0.55-0.07,1.06-0.12,1.52-0.15c0.37-0.02,0.72-0.05,1.04-0.07c0.32-0.02,0.48,0,0.48,0.07
			c0,0.53-0.03,1.06-0.07,1.59c-0.05,0.53-0.12,1.01-0.21,1.44c-0.09,0.5-0.19,0.98-0.28,1.44l0.41,2.77
			c0.18,0.23,0.37,0.42,0.55,0.54c0.37,0.33,0.76,0.53,1.18,0.61l0.55,1.23l-14.55,2.43l1.39-2.41c0.42-0.1,0.67-0.2,0.76-0.31
			s0.23-0.26,0.42-0.45c0.32-0.34,0.49-0.75,0.49-1.25l0.02-6.86l2.27,3.12l-2.27-3.81l0.04-11.93l6.79,0.35l-4.71-0.85l3.33-0.48
			l-3.88,0.41l-1.52-0.27c-0.04-0.49-0.09-0.96-0.13-1.42c-0.04-0.38-0.08-0.81-0.1-1.29c-0.02-0.47-0.03-0.9-0.03-1.29
			c0-0.04,0.12-0.1,0.35-0.18c0.14-0.04,0.28-0.07,0.42-0.08l-0.75-4.38l-0.83-0.95l-1.17-1.93l-0.55-0.39l-0.86,8.71l-0.25-9.22
			l-2.28-1.75l7.62,0.19l0.28-0.02l7.1,10.93l-6.13-10.95l11.08-0.15l2.07,1.34c-1.06,0.28-1.6,0.79-1.6,1.53
			c0,0.35,0.16,0.75,0.48,1.18l0.34,1.03l0.69,0.43L443.76,220.61z M382.19,239.1l-0.03,9.92l14.34-0.73h0.69l1.18-0.07l10.46-0.47
			v0.47l3.81-1.2c0.65-0.04,1.18-0.2,1.59-0.47c0.37-0.27,0.67-0.75,0.91-1.43l1.94,0.77l2.39,9.98l-2.63-1.94l-0.97-0.04
			l-0.76,0.63c-0.14-0.27-0.32-0.56-0.55-0.86c-0.14-0.13-0.25-0.28-0.34-0.45l-0.21-0.41l-17.39,1.25l-1.55,7.49l-0.18-7.43
			l-11.15,0.73l-5.3-2.92l1.51,1.64l0.55,0.12l1.16,1.3l-6.57,0.69l-7.48,1.23l0.63-1.41l1.18-0.6l1.75-4.07l0.64-4.84l8.25-3.5
			l-2.33,0.68l-4.95,0.17l3.09,0.33l-4,1.16l0.23-7.09l0.76-0.74l-0.93-10.49h3.05l-2.5,1.07l3.51-1.02h3.44l-5.92-0.84l-1.51-0.75
			l-0.06-2.69c0-0.56-0.16-0.96-0.48-1.18c-0.32-0.3-0.9-0.49-1.73-0.57l-1.17-1.35l14.55-0.37l-0.85,4.65l0.91-2.17l-0.14-0.04
			l0.56-1.62l0.83-0.9l19.74-1.29l6.79,0.66l-3.95-0.85l4.92-0.32c0.69-0.05,1.22-0.22,1.59-0.53c0.37-0.2,0.67-0.66,0.91-1.38
			l3.46-0.39l-2.37,5.06l-0.29,3.29l-0.84,1.43c-0.14-0.27-0.32-0.56-0.55-0.86c-0.14-0.13-0.25-0.27-0.34-0.4l-2.63-0.57
			l-9.56,0.94l-1.2,7.2l-1.02-5.32l-0.62-1.33l-4.71-0.11l-0.64,3.79l-0.61-3.65l-9.01,0.48l0.29-3.24l-0.77,3.38l-0.76,0.05
			l-0.03,8.6l0.4,3.67l-0.06-2.48l3.74-1.09l-3.4,0.64l0.49-0.82l14.82-0.6l0.21,0.36l4.64-1.41c0.05-0.07,0.14-0.18,0.28-0.34
			c0.09-0.11,0.19-0.24,0.28-0.39c0.09-0.15,0.19-0.31,0.28-0.49l2.49-0.37l-0.93,8.82l-1.53,0.52c-0.27-0.62-0.57-1.04-0.9-1.26
			c-0.23-0.09-0.55-0.16-0.97-0.2c-0.18-0.02-0.39-0.04-0.62-0.06l-10.25,0.67l-0.58,6.9l-0.53-6.83l-7.9,0.52L382.19,239.1z
			 M333.02,258.52l-5.04-5.37l1.86,3.1l0.55,0.17l1.72,2.16l-8.11,0.64l-0.41-0.34l-7.48,0.97l0.63-1.36l1.11-0.6l1.74-1.12
			l1.15-10.95l9.01-1.01l-4.71,0.15l-3.11-0.53l2.08,0.66l-2.84-0.02l-0.68-3.97l0.69-0.68l0.02-5.23l2.98,0.02l-2.43,0.95
			l3.47-0.97h3.32l-5.82-0.79l-1.45-0.75l0.02-6.07c0-0.14-0.08-0.36-0.24-0.67c-0.16-0.31-0.33-0.61-0.52-0.92
			c-0.18-0.37-0.41-0.76-0.69-1.17c-0.18-0.06-0.37-0.13-0.55-0.23c-0.18-0.06-0.36-0.12-0.52-0.18s-0.36-0.12-0.59-0.17l-2.42-2.06
			l15.24,0.48l-0.57,4.47l0.98-2.12l-0.14-0.1l0.49-1.56l0.83-0.85l7.07-0.3l6.65,0.67l-3.88-0.85l17.04-1.33
			c0.32-0.02,0.67-0.1,1.04-0.23l0.56-0.25l1.53-0.73l2.7-1.02l-2.3,5.01l-0.7,3.53l-1.32,1.14c-0.09-0.13-0.2-0.27-0.31-0.4
			s-0.22-0.25-0.31-0.35c-0.14-0.13-0.28-0.23-0.41-0.29l-1.52-0.16l-0.76,0.05l-1.06,6.77l-1.02-5.16l-0.62-1.33l-13.23,0.39
			l-0.64,3.68l-0.61-3.6l-8.17,0.48l-2.5,3.12l1.4-2.94l-0.76,0.05l-0.03,8.39l0.4,3.56v-2.38l3.68-1.09l-3.4,0.59l0.49-0.77
			l14.55-0.58l0.21,0.3l4.51-1.35c0.09-0.08,0.19-0.19,0.28-0.33c0.09-0.11,0.17-0.23,0.24-0.36c0.07-0.13,0.15-0.28,0.24-0.46
			l2.5-0.43l-0.93,8.66l-1.46,0.52c-0.27-0.62-0.57-1.04-0.9-1.26c-0.23-0.09-0.53-0.16-0.9-0.2l-0.69-0.06l-2.63,0.75l-0.65,6.74
			l-0.39-7.52l-15.17,1.26l-0.03,9.71l0.62,2.18l1.86,1.78l2.29,0.11l0.41,2.19l-2.49,0.11L333.02,258.52z"/>
		<path class="st1" d="M84.32,148.89l-1.06-0.32l0.78,3.14c-4.32-0.44-1.2,0.18-2.58-1.45c-4.38,0.54-7.62,2.9-9.98,5.19
			c-3.15,3.05-2.48,7.82-2.53,12.56c2.64,1.89,2.78,1.78,2.57,4.19c6.87,1.88,4.45,1.05,7.02,3.09l-7.4,4.25
			c-0.8,1.89,0.24-0.47-0.96,1.66l-2.94,12.02c0.11,3.59,3.52,10.2,5.84,12.2c3.92,3.39,10.35,3.81,16.49,2.52l12.02-6.76
			c3.19,1.81,2.04,1.34,4.43,4l3.42-1.59c2.46-0.33,1.07-0.79,2.18,0.76c1.7,3.18-1.84,0.85,2.57,2.59c4.17-0.29,8.99-1.8,12.07-4.4
			l-2.17-7.35l-6.69,0.12l-1.18-11.27c-0.47-4.44-1.41-3.03-0.64-7.34c2.17-12.04-4.14-19.91-4.96-22.73l-1.38-1.12
			c-0.21-0.16-0.53-0.4-0.75-0.56c-0.25-0.19-1.46-0.68-1.64-1.14c-0.17-0.45-0.59-0.39-0.89-0.58l-0.84-1.03l-3.71-1.55
			c-4.14,2.42,0.14,0.44-4.28,1.9c-1.28,0.42-1.02,0.13-2.87,0.83c0.63-2.58-0.92,0.13,0.92-1.56l2.11-0.99
			c-2.72,0.06-5.38-0.08-8.07,0.43c-3.25,0.62-4.32,3.07-4.89,0.28 M78.16,164.83c-0.52-4.54-0.51-3.34,1.98-5.7
			C80.55,161.41,79.31,162.94,78.16,164.83z M90.23,171.03c-1.8,2.41,0.97,1.32-3.29,1.88c-1.88-3.13-0.43-1.12,0-6.39l-0.39-8.21
			l3.73-0.87c1.12-4.49-0.05-1.67,1.71-2.65l0.3,3.05l3.71,0.62l2.02,10.73L90.23,171.03L90.23,171.03z M97.78,191.32
			c-4.61,2.27-4.94,5.16-11.24,2.75c-1.78-7.72,4.73-13.17,12.66-14.08l-1.42,11.34V191.32z"/>
		<path class="st1" d="M450.74,154.58c0.23,0.14,0.53,0.32,0.68,0.4l2.27,1.11c1.28,0.59,0.97,0.22,2.53,1.14l0.29-0.54
			c-2.62,1.59-2.75-2.37-1.66,3.1l2.48,0.51c3.57,1.04,1.82,0.42,3.32,2.02l-3.04,1.95c-10.06,3.92-11.22,18.48-4.22,26.71
			c3.8,4.47,9.68,4.89,16.35,4.08c6.34-0.77,8.45-4.06,12.94-7c2.9,1.38,2.44,1.4,4.31,3.86c4.22-0.83,0.06-0.75,5.73-1.98l1.48,4.3
			l5.09-1.17l0.28-3.1c1.29,1.34,0.68,0.95,3.36,1.73l1.87,0.62c1.95-2.41,1.9-1.57,2.09-5.22c-0.51-2.94-1.04-2.81-2.43-6.05
			l-4.89,1.19c-3.56-17.29-1.71-21.26-2.48-26.53c-0.88-6.06-0.74-7.14-3.47-11.88c-3.35-5.82-0.85-4.87-7.3-7.5l-3.8-1.47
			c-2.87,1.47-4.07,2.39-6.93,2.51c0.71-2.16-0.43-0.5,2.83-2.47l-10.2,0.67l-4.49,2.69c0,0,0.46-3.8-7.26,1.5
			C449.51,144.54,451.07,142.83,450.74,154.58 M458.48,151.56c0.75-4.87-0.05-4.04,3.97-4.9l-3.16,4.11
			C459.13,150.56,458.74,151.29,458.48,151.56z M471.74,144.44l0.35-3.11c1.6,1.37,2.57,2.28,3.82,4.02
			c3.94,2.18,3.52,3.88,3.72,9.55c-2.11,1.58-3.99,2.33-7.41,2.83c-1.3,1.52,2.26,1.32-3.67,1.91c-0.7-3.29-1.23-1.59,0.94-3.98
			c-1.3-4.12-3.93-10.63,2.25-11.23V144.44z M468.31,181.31c-2.15-9.01,4.65-12.76,12.2-14.74
			C481.03,175.18,478.07,184.1,468.31,181.31z"/>
		<path class="st1" d="M294.46,184.68l4.29-2.85c0.89,1.28,2.16-2.42,0.96,2.97c-0.82,3.7-3.05,0.48-1.27,6.92
			c1.58,1.79,3.69,4.16,7.78,4.9l6.54-0.27l-1.87,2.99c14.5,2.65,14.3,0.09,21.37-3.05l10.55-13.61l-2.86-5.48l-3.8-0.09
			c-3.25,0.92-10.08,18.05-20.61,9.35c-2.31-1.84-0.73-1.05-3.3-1.65c0,0-2.6-0.16-3.93-0.45l3.95-0.67l-0.45-2.3l-0.91-5.7
			c-2.81-1.49,0.78-0.43-4.28-0.76l0.56-2.33c0.34,0.01,0.83-0.32,1.03,0.04c0.19,0.34,0.77,0.04,1,0.09
			c0.25,0.05,2.44,0.64,2.78,0.76c7.39,0.58,11.43-0.17,18.49-0.33c8.15-0.19,7.69,2.56,11.75-3.83
			c-0.4-8.44-5.67-18.78-10.56-23.67l-4.49-3.1c-11.57-7.98-30.81-1.9-35.88,17.41c-3.17,12.06-1.5,16.03,3.15,24.73 M313.91,150.74
			c7.57,0.09,7.21,1.7,12.16,1.71c-4.09,3.26,0.3,7.2-3.23,9.16l-13.14,2.06l0.8-7.81c-1.91-2.91-0.75-0.27-1.99-5
			C314.47,152.44,309.33,152.75,313.91,150.74L313.91,150.74z M337.1,161.6c0.29,3.77,1.76,1.93-2.43,2.73
			C335.49,162.14,335.33,162.82,337.1,161.6z M307.19,172.62l-3.13,0.17l-0.14,2.13l0.23,1.23l-1.93,1.05
			c1.32,4.11-2.23,0.91-2.81,0.33c-1.88-1.02-2.86,1.79-0.79-2.48l-3.13-0.15c-0.59-3.34-0.33-0.37,1.08-1.56
			c1.39-2.22,0.91-0.67,0.65-4.49c5.07,2.01,1.73,0.33,2.52,1.26l4.16-3.95c-1.15,1.73-1.27,0.9-2.32,4.46
			c9.12-1.03,5.06,0.74,5.62,2.01L307.19,172.62z M308.46,169.28l5.9-0.81l1.19,3.08l-7.09-2.28V169.28z M295.88,167.19
			c1.91,2.83,0.88,2.57,0.16,3.55C291.82,164.93,295.32,167.93,295.88,167.19z M306.09,181.98c1.11-0.48-1.37-2.69,3.13-0.11
			l-1.03,0.89C304.63,182.55,308.41,183.38,306.09,181.98L306.09,181.98z M319.57,198.08c-2.34,1.02-5.18,1.04-4.23-2.95
			c0.42-1.77,0.64-0.34,1.3,0.11C320.15,197.62,317.34,193.68,319.57,198.08L319.57,198.08z"/>
		<path class="st1" d="M10.79,136.77c-1.65,4.8,0.12,1.97-4.41,5.7c-8.39,5.79-10.88,44.83,7.52,61.52
			c11.96,10.85,41.56,8.42,50.06-17.13l-2.73-0.83l-1.97-1.42l1.71-1.16c1.7-4.9,1.08-1.76,1.22-5.91
			c-2.11-3.03-0.29-1.18-3.57-2.89c-4.45,2.49-5.01,6.79-7.79,12.59c-1.16,2.41-1.3,3.33-2.18,5.47c-2.44,2.71-0.31-1.12-2.43,4.08
			c-2.47-0.89-1.96-2.17-5.96-2.67c-15.92-0.47-15.84-11.78-16.36-26.61c-0.38-10.98-1.84-8.72,1.93-18.19
			c3.25-8.15,2.42-7.16,11.46-9.93l3.66,1.91c-1.66,4.07-0.84,1.85-2.67,3.12c0.79,11.15,1.61,9.5,4.68,17.72
			c6.68,1.42,5.03,2.65,12.49,1.81c1.46-6.47,1.05,1.11,4.74-5.26c1.48-2.55,1.76-6.85,1.55-9.44c-0.53-6.45-3.4-9.99-5.54-15.41
			l-3.7-4.14c-8.85-1.82-16.41-9.7-35.01,0.63c-3.02,1.68-1.64,1.02-2.6,1.69c-4.99,3.48-3.46,2.07-4.09,4.75 M27.61,140.59
			c-1.83-1.33-0.4-3.49-0.18-3.95C32.12,144.37,28.8,138.83,27.61,140.59z"/>
		<path class="st1" d="M206.83,146.12l-0.51,1.73l-2.69,0.26l0.69,0.4c-0.27,6.52,0.27,4.22-2.29,6.44
			c-2.57,2.22-4.66,6.28-1.32,8.3l3.03-0.57c1.4-1.51,0.82,1.08,2.21-2.69l4.15,1.2c0.08,0,0.36-0.11,0.54-0.18l0.93-4.98
			l-0.49-4.98c-5.61-0.84,2.34-0.48-1.7,0.26c-0.21,0.04-0.53,0.24-0.76,0.26c-4.86,0.6-2.68,0.43-4.9-1.72l6.11-1.86
			c0.31,0.15,0.71,0.33,0.93,0.47c0.21,0.13,0.64,0.37,0.87,0.52l1.54,1.24c0.13-0.2,0.45,0.46,0.67,0.69
			c-0.75-3.84-1.25-1.24,0.35-4.15l0.65,1.97c1.25,0.33,1.77,0.48,2.93,0.52c2.92,0.11,2.88-1.99,5.07,2.42l-6.98,0.34
			c-1.64,0.54-2.18,0.53-4.09,1.03c1.68,1.38-2.5,1.36,3.56,1.15c2.47,0.26,8.04,1.67,10.31,2.76c1.69,0.81,0.46-0.24,2.04,1.24
			l3.76,6.76c-6.22,0.21-9.29-1.63-16.22-1.42l-5.78,0.25c0.11,2.52-1.01,1.37-2.78,0.69l-2.46,1.24l-1.42,0.51
			c-3.47,2.46-1.82-1.26-2.3,3.31c-3.86,13.14,24.19,14.46,29.65,18.12c-1.01,6.84-8.8,7.02-15.4,4.92
			c-5.44-1.73-6.86-8.38-11.21-12.14l-5.15,0.25c-1.37,6.9-0.27,9.74,0.06,16.31l3.37,0.51l-3.81,0.83
			c1.26,3.56,2.03,6.26,5.73,6.41c3.49,0.14,3.59-1.55,6.3-2.61c8.53,3.41,9.51,1.77,18.97,2.35l0.9-2.52
			c-4.03-0.8-1.09,0.31-2.62-2.04l0.25-1.23l-1.08-1.15l2.32-0.62l3.97,2.33l-3.72,0.7c0.95,1.69-1.47,1.44,2.04,1.3
			c1.59,2.12-0.5,0.57,2.78,0.92c0.52-0.45,1.64-1.33,2.15-1.7c5.84-4.2,7.74-7.52,6.02-15.96c-2.18-10.72-1.86-10.13-9.07-17.98
			l6.38-1.69c-1.24-7.91,1.19-4.34-2.79-16.75c-1.56-4.87-1.98-3.88-2.59-4.6l-8.75,2.07c-0.23-0.15-0.5-0.38-0.76-0.53
			c-1-0.57-0.5-0.52-2.41-0.98c-1.19-0.28-4.5-0.23-5.75-0.15c-3.71,0.22-6.95,0.51-9.47,2.19 M226.78,151.31l-0.58-3.12
			c1.96,1.03,1.59,2.5,6.37,1.58l-0.5-0.87c-0.06-0.18-0.44-0.87-0.45-1.08c-0.19-3.37-1.31,0.61,1.11-2.29
			c2.78,2.84,1.09-0.91,2.64,3.52c1.72,4.94-1.54-1.18,0.57,2.94C231.32,152.95,231.06,153.25,226.78,151.31z M226.78,151.31
			l-2.39,2.34C225.11,150.31,223.34,152.38,226.78,151.31 M217.47,168.27c1.92-3.64-1.25-1.6,2.13-2.74
			c0.58-0.2,1.31-0.22,1.67,0.61C222.37,168.73,219.08,168.14,217.47,168.27L217.47,168.27z M202.82,171.5
			c4.05,1.02,1.76-0.26,3.45,3.04C199.48,172.05,205.95,174.21,202.82,171.5z M213.5,173.71l3.9-2.55c0.02,1.46,0.79,2.87-1.05,3.35
			c-0.19,0.05-0.62-0.02-0.82-0.02L213.5,173.71L213.5,173.71z M219.63,177.31c0.62,0.68,2.98-1.75,0.89,3.17
			c-0.24-0.26-0.89-1.04-0.93-1.21C218.6,174.64,220.4,180.3,219.63,177.31L219.63,177.31z"/>
		<path class="st1" d="M130.85,130.56l1.35-1.01c2.74,1.27,1.95,1.62,4.61,1.28c-0.91,1.89-0.06,0.33-1.18,1.77l0.96,3.57
			c0.03-0.1,0.18,0.21,0.31,0.37l-3.03,1.31c-0.91,10.97-0.8,12.39,3.65,13.15c-2.77,0.4-1.94,0.6-3.37,1.65l2.45,40.27
			c-1.57,3.92-0.25,2.26-3.31,4.27l4.54,2.59l-5.08,0.58c-0.18-0.41-0.53-1.08-0.51-1.28l-2.08-1.23l-0.54,5.87l4.6,0.15l-2.34,2.77
			c6.02,0.28,26.14-0.81,28.51-2.09c0.5-8.67-0.18-7.75-6.59-10.1l-2.29-3.75c-4.26,0.11-4.64,1.43-4.48-2.57
			c5.34,0.94,1.32,1.24,5.59,0.35l-2.9-6.33l3.3-1.15c-1.1-9.87-1.03-21.74-1.77-32.03c-1.05-14.73,1.68-19.22-3.57-29.77
			c-8.01-0.4-17.84-0.29-23.41,2.36C123.77,128.35,123.87,131.64,130.85,130.56 M147.08,130.44c1.94,2.23,1.05-3.14,1.4,3.1
			c0.31,5.76-0.22,1.77-1.11,3.29C145.52,134.16,145.36,133.43,147.08,130.44z M137.4,177.39c0.29-0.21,0.69-0.99,0.87-0.65
			c0.15,0.29,0.66-0.43,0.84-0.42c2.79,0.16,0.85-0.19,2.29,0.93l-1.42,0.58C136.04,177.78,139.02,177.87,137.4,177.39L137.4,177.39
			z M139.8,183.93c3.94-0.64,0.92-1.6,4.38,2.45C139.16,185.32,143.8,186.59,139.8,183.93z M147.03,188.12l-2.92,0.79
			c1.12-2.92,0.99-2.49-0.08-6.57C147.65,185.15,147.52,184.58,147.03,188.12z M138.43,185.24l2.62,2.44
			c0.19,0.14,0.5,0.27,0.68,0.41l2.37,2.51c-1.63-0.15-1.28-0.24-2.41-0.68l-1.39-0.63c-3.07-1.38-0.32,2.81-1.79-1.12
			C137.85,186.39,138.4,187.23,138.43,185.24L138.43,185.24z"/>
		<path class="st1" d="M352.48,176.3c2.21,0.64,0.43,0.46,1.66,0.1l2.67-1.08c0.33-0.13,0.8-0.33,1.21-0.45l-0.81,2.79
			c2.68-2.23,1.1-1.67,6.46-2.01c2.06-0.52,2.67-0.91,5.08-0.7l0.86-3.99c-3.56,0.24-3.26,0.01-5.62,0.91l-4.43,2.42
			c2.4-5.79,4.43-3.53,11.44-3.23l-0.65-4.43c-1.38-5.33,2.43-7.97,5.5-12.02l4.67,0.15l5.86,0.75c-1.63-5.14,1.03-0.92-3.47-4.16
			c2.89-1.73,2.36-0.01,6.97-2.22l-1.66-3.63l-2.23-0.46c2.07-4.96,2.42-3.36,4-0.13c1.15,2.67-2.05,3.17,1.26,2.29l0.69,2.19
			c0.26,4.11-4.94,9.24-5.1,8.98c-0.11-0.18-0.43,0.37-0.65,0.54c0.44,1.62,0.67,1.09-1.26,1.16c0.35,3.88,0.67,8.75,1.01,12.92
			c0.32,3.86,0.93,1.73,0.63,5.56c-0.25,3.09-0.45,3.47-0.06,6.79l0.04-0.38c3.71-0.31,10.15,0.42,14.17,0.74l2.71-2.2
			c-0.48-4.65,0.35-3.59-0.6-8.33s-0.47-2.95,0.94-7.61c-1.64,0.69-1.69,0.62-2.91,1.54l-2.04,1.96c-1.69-4.57-0.89-4.93,4.73-4.52
			l-0.9-6.56l-1.77-4.42c-1.1,0.11-1.26,0.03-2.14-0.12c-0.21-0.04-1.59-0.59-1.93-0.73c-2.37-0.21-0.31,1.35-1.47-0.69
			c1.65-2.33,0.9-1.99,3.07-4.64c-0.31-2.55-1.41-3.84-2.23-5.53c-3.32,0.27-2.02-0.62-3.94,1.1c-0.22-0.21-0.49-0.51-0.61-0.68
			c-2.28-3.57-0.53-2.42-2.64-5.01c-6.87,0.54-11.1,2.17-14.93,2.51c-1.76,3.53-1.79,2.79-5.44,5.02l-3.15-5.72
			c-1.4-0.11-17.08,0.64-19.16,1.65c-4.28,2.08-2.02,8.46,0.58,10.06l3.15,1.24c1.16-2.15,3.93,12.14,2.42,22.26 M388.13,185.06
			c0.59-4.83-2.1-3.37,3.71-4.2c-0.12,0.29-0.17,0.45-0.26,0.9c-0.08,0.44-0.18,0.69-0.32,0.87
			C389.39,184.92,391.52,184.62,388.13,185.06L388.13,185.06z"/>
		<path class="st1" d="M255.41,135.42l1.68,2.56c0.14,0.21,0.67,1.06,0.86,1.32l-4.3,0.98l-9.26,5.77
			c-0.14-0.22-0.53,0.31-0.79,0.48l3.96,2.25c-0.95,0.71,0.85,2.54-3.42,0.28c-2.61,13.46,7.17,1.6,7.14,10.7
			c0,2.19-1.06,1.42-0.48,10.64c0.71,11.23-0.84,16.15,4.61,24.32c2.71,4.07,4.05,6.68,13.09,7.78c-2.09-5.47,0.64-1.34-2.94-4.66
			c1.69-4.91,1.4-0.24,2.16-6.04c3.37,2.97,2.02-1.22,1.35,4.24c-0.3,2.44-0.54,3.38-0.56,6.41c5.78-0.74,9.08-1.75,12.38-5.98
			c2.17-2.78,4.55-6.83,5.23-10.72c-0.22-0.22-0.61-0.51-0.69-0.61l-0.76-0.86c0,0-2.08-0.03,1.14-0.14
			c0.09-5.17,0.31-8.15-4.08-10.05l-0.21,2.49c2.31,2.53-2.54,1,2.71,1.98l-4.04,0.64c-2.22,1.46-0.06,0-1.31,2.6l-2.85-0.83
			l0.46,4.07c-2.72,2.69-2.56,1.67-4.21,5.34c-1.96-2.81-3.49-3.11-3.89-6.29l-0.48-27.61c0.99-0.55,2.27-0.83,3.52-1.86l1.82-3.44
			c-1.76-1.98-1.74,2.28-1.43-2.54c4.96,0.21,1.09-0.22,2.7,1.33l2.65-0.89l-1.12-3.24l-2.18,0.71l-0.79-2.87h-2.81l-1.87,7.34
			c-0.07-0.16-0.15,0.59-0.23,0.91l-2.62-0.19l-3.11-0.4l-6.97-0.76c0.24-0.27-1.45-0.95,2.39-1.88c3.82-0.93-0.46-0.33,3.98,0.29
			c-0.32-0.27-0.74-0.53-0.99-0.77l-2.06-2.1c-1.14-2.12,0.59-1.98,0.69-2.07l4.6-0.1l3.92-0.2c-1.74-5.36-0.43-15.02-4.15-21.3
			l-5.72,1.24l-2.69,11.75L255.41,135.42z M258.62,143.63l-2.79,3.47C255.6,143.26,254.45,145.88,258.62,143.63z"/>
		<path class="st1" d="M162.44,155.47l4.61,0.92c-1.53-1.12-0.79,0.3-1.67,1.41l3.25,1.93c0.12-0.21,0.45,0.41,0.68,0.61
			c0.37,5.1,1.45,8.73,1.24,13.1c-0.27,5.5-0.55,10.2,0.71,15.61l-1.95,5.35l-3.74,0.58l-1.61,1.17l0.23,3.21
			c2.52,0.67,1.76,2.21,2.45,1.17c-2.23,1.9-1.97-2.5-1.78,2.73l1.08,2.2l17-0.03l0.25-3.1c1.99,1.25,0.97,0,1.92,2.27l10.14-0.66
			c0.46-2.82,0.49-4.8-1.19-7.44c-1.92-3.03-1.74-2.05-5.38-3.27l-2.61-41.99l-3.2-0.58c2.04-2.99,0.98-0.66,0.06-3.83l-20.26,2.26
			c-1.03,2.29-2.52,5.01-0.24,6.39"/>
		<path class="st1" d="M415.58,139.88l-2.42,2.4c-0.08,4.62,0.76,4.1,1.81,7.68l6,1.38c0.88,11.15,2.92,24.07-0.04,34.16l-5.61,1.42
			l1.42,9.97l17.44-2.26c2.64-2.44,1.76-1.12,4.46-2.09l1.82,3.63l5.87-0.82c1.1-5.14,0.49-7.57-3.35-9.99
			c-0.19-0.12-0.55-0.25-0.73-0.36c-0.19-0.11-0.57-0.33-0.73-0.42c-0.16-0.1-0.58-0.15-0.71-0.5c-2.09-5.58-2.56-33.98-3.03-42.12
			l-3.39,0.41c2.37-4.07,1.85-0.48-0.4-3.94l-18.43,1.44L415.58,139.88z"/>
		<path class="st1" d="M368.1,180.06l-0.74,1.5c0.01-0.06,0,0.16,0,0.24c-3.26-1.38-1.3-1.46-5.03-1.71
			c-2.9-0.77-0.92-0.05-3.75-0.67c-0.13,0-2.35-0.11-2.48-0.09c-2.15,0.29-1.62,0.46-2.54,0.98c0.96,2.12,0.75,1.77,2.85,3.4
			l-2.43,0.49c0.1,4.25,0.54,2.35-2.88,5.32l-5.1,0.34l-0.69,2.52l3.63-0.61c0.13,0,0.47,0.04,0.7,0.05
			c-0.05,0.11,1.73,0.92-3.2,3.21l0.63,2.43l1.13,1.7c4.25,0.46,5.97,0,10-0.06c5.55-0.08,2.23,1.61,6.49-1.22
			c0.99-5.22-0.12-1.41,2.13-3.06l3.01,2.59l1.36,1.67c0.91-2.04,0.69-0.55,0.37-2.61c2.13-2.2,0.82-1.56,3.35-2.56
			c-0.75-3.61-1.34-5.47-2.81-7.6c-1.09-0.28-1.03,0.22-2.09-0.53c0.15-2.35,0.6-3.69,0.69-4.78c0.07-0.87,0.04-4.36,0-6.29
			l-1.99,0.23c0.04,0.21,0.42,2.73,0.42,2.76c-0.19,2.69,0.79,0.92-1.07,2.34 M364.96,188.18l2.11-0.61
			c0.09-0.3,0.47,0.35,0.72,0.51C362.33,191.78,365.95,188.75,364.96,188.18L364.96,188.18z"/>
		<path class="st1" d="M167.71,123.34c0.91,1.91-1.01,1.25,1.24,1.34c2.16-4.34-0.5-1.57,3.21-2.3c0.82,5.93,1.77,5.32-5.63,4.76
			l0.1,5.29c0.03,3.49-0.15,2.97,1.79,6.11l3.23,2.35l1,1.24c4.81-0.16,8.7-0.85,11.32-3.29c2.02-3.49,2.25-7.55,0.78-11.41
			l-4.36-1.57c-3.68-1.22,0,0.38-3.44-0.56c2.68-2.01,2.61-1.56,5.61-2.27c-3.45-3.5,0.1-0.42-3.47-2.34
			c-1.58-0.85-2.48-1.55-4.89-2.32c-4.13,1.4-4.8,2.17-6.49,4.95 M173.1,128.83c0.88-2-2.15-0.8,3.44-2.4
			c-2.26,4.02,0.31,0.63-1.93,2.46L173.1,128.83L173.1,128.83z"/>
		<path class="st1" d="M419.67,115.03c0.34,3.85-1.13-2.19,4.6,3.85l-7.13-0.56l1.12,6.03c0.32,3.84,1.54,4.83,3.28,7.26
			c3.01,0.89,1.98-0.11,3.16,2.25c5.67-0.84,7.93-1.62,11.92-4.24c0.34-3.9,1.15-6.7-0.33-10.13c-6.35-3.43-6.81-0.94-11.82-6.65
			c9.72,1.3,2.4,1.46,5.59-0.99c-2.21-1.2-1.46-1.03-3.98-2.12C422.95,110.71,420.23,112.09,419.67,115.03"/>
		<path class="st1" d="M403.96,197.36c3.89-0.03,3.59,0.21,6.4-1.15c1.31-2.26,2.02-4.31,0.1-7.02c-3.16-4.45-0.43,0.39-4.72-2.89
			l-6.07,0.79c-0.37,1.18-0.82-0.56,2.36,3.98c-3.59-0.55-4.8,0.13-9.68,2.41c2.61,1.47,3.91,0.46,4.4,0.48l7.21,3.41L403.96,197.36
			z"/>
		<path class="st1" d="M381.06,191.2l1.07,0.67c0.05,0.12,0.74,1.53,0.77,1.72c0.43,2.97,0.19,0.5-0.55,1.75
			c-3.16-1.78-0.58,0.8-3.45-3.05l-0.58,2.75l-0.1,0.97c2.61,1.21,0.45-1.11,2.88,1.93c2.83-4.6-0.72-1.76,4.52-3.82l-0.45,4.21
			l7.74-1.26l2.59-0.61c-0.27-0.21-0.63-0.44-0.82-0.6s-0.56-0.41-0.78-0.61c-2-1.75-3.4-2.81-2.25-4.86
			c1.32-2.36,1.88,2.46,2.24,0.06c0-0.06,0.11,0.1,0.18,0.1c2.49-2.82,1.11,3.5,2.25-4.33c-0.1,0.02-5.05,0.86-5.26,0.93
			c-5.31,1.71,3.11-2.81-2.03,1.13l-3.51,4.21l-4.45-1.28L381.06,191.2z"/>
		<polygon class="st1" points="200.03,152.18 201.75,152.77 200.89,150.75 		"/>
	</g>
	<path class="st2" d="M259.06,119.94c0,0-0.95-2.61-1.27-3.74s0.02-2.11-0.15-3s0.31-1.39,0.55-3.48c-2.09-5.73-3.89-17.8-3.89-17.8
		s-3.28,0.07-9.84,1.33c-13.52,3.43-24.17,3.38-32.16,3.44s-16.36-2.62-17.92-2.61s-5.54-0.01-9.25,0.65
		c-3.7,0.66-10.19,1.53-13.61,2.15s-5.49,1.71-8.45,3.03s-6.07,1.29-6.88,1.79s-2.87,1.6-5.09,1.63c-1.33,0.92-5.02,2.18-6.6,2.75
		s-4.12,2.13-6.26,3.44s-4.35,2.23-5.66,2.7s-3.59,1.5-4.92,1.58s-1.29-1.52-1.38-2.8c-0.09-1.28,0.18-2.87,0.6-3.46
		s0.5-0.91,0.14-1.32s-0.8-0.49-0.18-1.62s4.43-4.44,9.11-6.59s7.04-3.61,9.58-5.23s4.95-1.19,6.63-0.53
		c6.79-1.35,10.92-3.54,20.17-7.79c9.93-4.49,18.16-3.92,26.98-4.04s18.5-5.07,20.61-5.88c2.1-0.81,12.11-4.74,12.7-5.31
		s0.69-0.35,1.93-0.71s5.23-3,6.11-3.73c0.88-0.72,1.4-1.08,1.95-1.1s1.28-0.97,2.43-1.62s6.08-1.4,6.59-1.64s0.42-1.42,0.42-1.42
		s0.53,1.25,0.84,0.72s0.2-3.2,0.36-4.97s0.96-2.99,1.59-4.12c0.62-1.13-0.12-1.62-0.5-0.92s-0.87,1.5-1.28,2.69
		c0-1.77,0.73-4.61,1.16-6.14s1.1-2.54,1.98-3.37c0.88-0.83,1.94-1.71,3.02-3.08s3.82-2.65,4.8-3.2s2.48-1.62,3.65-1.66
		s2.28-0.14,3.93-0.81s4.42-0.61,6.07-0.35s4.87,3.68,6.26,4.66c1.38,0.97,1.7,2.1,2.09,2.9s1.36,0.36,3.43,1.88
		c2.07,1.51,1.43,3.8,1.1,4.67s-0.32,1.59,1.11,1.73s2.58-0.4,6.8-2.3c6.73-3.96,7.8-4.23,10.49-5.51s6.86-3.35,9.51-4.9
		s4.41-2.22,6.35-4.04c1.94-1.82,6.35-4.86,8.38-6.31c3.13-2.25,6.59-3.46,8.17-4.7c1-1.82,2.53-3.17,4.71-3.53
		c0.59-0.57,2.87-1.6,4.25-1.51c0.56-1.85,2.54-4.28,2.74-4.77s0.57-1.96,0.54-4.29s0.3-5.69,1.07-5.65s0.54,2.92,0.46,5.19
		s0.36,3.13,1.05,2.78s1.84-3.82,2.89-6.42c1.05-2.6,2.01-3.81,2.56-3.67s0.66,0.98,0.02,2.39s-2.29,6.57-1.97,6.81
		s2.19-2.19,3.57-3.94s2.97-4.97,3.63-4.82c1.04,0.29,0.46,2.47-0.66,4.34c-1.11,1.87-3.34,4.73-3.88,5.31s-0.25,1.32,0.44,1.03
		s5.9-3.96,6.72-4.69s2.19-2.3,2.72-1.83s0.35,1.46-1.31,3.3s-7.36,6.03-8.15,7.09s-0.47,2.24,0.47,2.25s3.85-1.31,4.88-1.75
		s2.02,0.46,1.76,1.05s-2.67,2-3.92,2.42s-3.72,1.88-4.7,2.54s-4.43,1.67-6.35,1.38c-0.42,0.53-0.94,1.77-2.21,2.58
		c-0.82,1.67-3.56,2.83-7.21,3.6c-5.84,5.68-9.4,7.63-11.37,8.95c-1.97,1.32-4.79,3.98-6.87,6.23c-4.04,4.35-5.35,4.94-8.3,6.92
		c-4.35,3.11-7.44,7.3-9.33,9.18c-1.89,1.88-3.5,3.61-4.37,5.27c-1.39,2.8-1.78,3.61-3.2,5.13c1.61,16.13-8.84,17.31-8.84,17.31
		s0.97,1.34,2.93,3.73s3.91,3.18,5.62,5.12s2.17,3.46,2.17,3.46s2.8,2.28,4.07,4.19s1.3,3.24,1.36,4.91s0.22,1.79-0.03,2.27
		s-0.43,0.69-0.99,2.55s-1.69,2.22-3.02,1.37s-3.46-4.98-3.89-6.17c-0.43-1.19-0.5-2.75-2.75-4s-2.59-2.93-3.91-3.96
		s-4.82-2.74-7.02-3.98s-4.9-1.41-7.5-1.52s-5.66-1.68-6.97-2.15s-2.3-0.42-3.2-0.25s-2.68-0.61-3.05-0.85s-0.64,0.4-0.63,2.12
		s-0.6,10.54-0.94,14.29c0.8,2.32,1.28,5.92,1.12,8.74c-0.12,2.23-1.04,2.54-1.04,2.54c-0.48,0.45-0.38,0.57-0.38,0.57
		c0.82,0.05,1.13,1.52,1.08,2.34s-0.22,3.51-0.82,3.82s-1.19-1.6-1.14-2.42s-0.5-1.44-1.32-1.37s-3.27-0.32-3.31,0.38
		s0.91,2.29,0.32,2.48s-1.99,0-2.28-1.08s-0.57-2.15-0.72-1.69s-0.14,2.22-0.28,2.56s-1.3,0.15-1.6-0.69s-0.53-0.97-0.81-0.17
		s-1.11,0.87-0.9-0.64s-0.21-2.24,0.86-2.53s1.49-1.32,2.66-1.24c1.17,0.08,2.66,0.16,2.69-0.3l-0.5-0.54L259.06,119.94z"/>
</g>
</svg>
